<svg width="21" height="21" viewBox="0 0 21 21" fill="none" xmlns="http://www.w3.org/2000/svg">
<path d="M10.496 21L10.0052 20.5006L3.16095 13.5264C1.58608 11.9041 1.12174 9.47848 1.98308 7.37315C2.84441 5.26783 4.86319 3.89431 7.10391 3.88892C8.49012 3.88892 9.69524 4.58094 10.496 5.34329C11.2966 4.58094 12.502 3.88892 13.8879 3.88892C16.1324 3.89071 18.1558 5.26578 19.0178 7.37495C19.8799 9.48387 19.4118 11.9136 17.8309 13.5351L10.9866 20.5095L10.496 21ZM7.10391 5.29067C5.41731 5.29529 3.89844 6.32999 3.25124 7.91502C2.60429 9.50005 2.95564 11.3256 4.14234 12.5451L10.496 19.02L16.8581 12.5451C18.046 11.3246 18.3969 9.49697 17.7476 7.91091C17.0982 6.32511 15.576 5.29169 13.8879 5.29067C12.7171 5.29067 11.6151 6.05302 11.0383 6.8064L10.496 7.52486L9.95351 6.8064C9.37668 6.05302 8.27472 5.29067 7.10391 5.29067Z" fill="black"/>
</svg>
