<svg width="31" height="29" viewBox="0 0 31 29" fill="none" xmlns="http://www.w3.org/2000/svg">
<g clip-path="url(#clip0_219_585)">
<path d="M15.4931 29L14.6751 28.1676L3.26801 16.544C0.643225 13.8402 -0.130672 9.79741 1.30488 6.28854C2.74043 2.77966 6.10507 0.49046 9.83961 0.481476C12.15 0.481476 14.1585 1.63485 15.4931 2.90543C16.8274 1.63485 18.8364 0.481476 21.1463 0.481476C24.8871 0.484471 28.2593 2.77624 29.6961 6.29154C31.1329 9.8064 30.3528 13.856 27.7179 16.5584L16.3108 28.1824L15.4931 29ZM9.83961 2.81773C7.02861 2.82543 4.49715 4.54993 3.4185 7.19164C2.34024 9.83336 2.92582 12.8759 4.90365 14.9084L15.4931 25.7L26.0966 14.9084C28.0764 12.8742 28.6612 9.82823 27.5791 7.1848C26.4967 4.54179 23.9597 2.81944 21.1463 2.81773C19.1949 2.81773 17.3583 4.08832 16.3969 5.34394L15.4931 6.54138L14.5889 5.34394C13.6276 4.08832 11.791 2.81773 9.83961 2.81773Z" fill="black"/>
</g>
<defs>
<clipPath id="clip0_219_585">
<rect width="31" height="29" fill="white"/>
</clipPath>
</defs>
</svg>
