<svg width="48" height="17" viewBox="0 0 48 17" fill="none" xmlns="http://www.w3.org/2000/svg">
<path d="M12.95 8.485C13.65 7.785 14 6.95667 14 6C14 5.04333 13.65 4.22667 12.95 3.55C12.2733 2.85 11.4567 2.5 10.5 2.5H1.75V9.5H10.5C11.4567 9.5 12.2733 9.16167 12.95 8.485ZM0 16.5V0.749999H10.5C11.9467 0.749999 13.1833 1.26333 14.21 2.29C15.2367 3.31667 15.75 4.55333 15.75 6C15.75 7.44667 15.2367 8.68333 14.21 9.71C13.1833 10.7367 11.9467 11.25 10.5 11.25H1.75V16.5H0ZM25.3613 11.25V7.75H21.8613C20.9047 7.75 20.0763 8.1 19.3763 8.8C18.6997 9.47667 18.3613 10.2933 18.3613 11.25C18.3613 12.2067 18.6997 13.035 19.3763 13.735C20.0763 14.4117 20.9047 14.75 21.8613 14.75C22.818 14.75 23.6347 14.4117 24.3113 13.735C25.0113 13.035 25.3613 12.2067 25.3613 11.25ZM20.6013 3.025C20.2747 3.35167 20.1113 3.76 20.1113 4.25C20.1113 4.74 20.2747 5.16 20.6013 5.51C20.9513 5.83667 21.3713 6 21.8613 6H30.6113V7.75H27.1113V16.5H25.3613V15.17C24.358 16.0567 23.1913 16.5 21.8613 16.5C20.4147 16.5 19.178 15.9867 18.1513 14.96C17.1247 13.9333 16.6113 12.6967 16.6113 11.25C16.6113 9.22 17.5097 7.69167 19.3063 6.665C18.6763 5.98833 18.3613 5.18333 18.3613 4.25C18.3613 3.29333 18.6997 2.47667 19.3763 1.8C20.0763 1.1 20.9047 0.749999 21.8613 0.749999C22.818 0.749999 23.6347 1.1 24.3113 1.8C25.0113 2.47667 25.3613 3.29333 25.3613 4.25H23.6113C23.6113 3.76 23.4363 3.35167 23.0863 3.025C22.7597 2.675 22.3513 2.5 21.8613 2.5C21.3713 2.5 20.9513 2.675 20.6013 3.025ZM44.4295 8.485C45.1295 7.785 45.4795 6.95667 45.4795 6C45.4795 5.04333 45.1295 4.22667 44.4295 3.55C43.7528 2.85 42.9362 2.5 41.9795 2.5H33.2295V9.5H41.9795C42.9362 9.5 43.7528 9.16167 44.4295 8.485ZM31.4795 16.5V0.749999H41.9795C43.4262 0.749999 44.6628 1.26333 45.6895 2.29C46.7162 3.31667 47.2295 4.55333 47.2295 6C47.2295 7.4 46.7395 8.61333 45.7595 9.64C44.8028 10.6433 43.6362 11.18 42.2595 11.25C42.6095 12.2767 43.2395 13.1167 44.1495 13.77C45.0595 14.4233 46.0862 14.75 47.2295 14.75V16.5C45.6195 16.5 44.1845 16.01 42.9245 15.03C41.6645 14.0267 40.8362 12.7667 40.4395 11.25H33.2295V16.5H31.4795Z" fill="black"/>
</svg>
