<svg width="14" height="14" viewBox="0 0 14 14" fill="none" xmlns="http://www.w3.org/2000/svg">
<g clip-path="url(#clip0_98_25)">
<path d="M5.61143 0C8.71144 0 11.2229 2.51143 11.2229 5.61143C11.2229 6.95141 10.7543 8.18003 9.97144 9.14573L13.8286 13.0029C14.0572 13.2314 14.0572 13.6 13.8286 13.8286C13.6 14.0572 13.2314 14.0572 13.0029 13.8286L9.14573 9.97144C8.18003 10.7543 6.95141 11.2229 5.61143 11.2229C2.51143 11.2229 0 8.71144 0 5.61143C0 2.51143 2.51428 0 5.61143 0ZM5.61143 10.0571C8.06569 10.0571 10.0571 8.06569 10.0571 5.61143C10.0571 3.15715 8.06569 1.16572 5.61143 1.16572C3.15714 1.16572 1.16572 3.15715 1.16572 5.61143C1.16572 8.06569 3.15714 10.0571 5.61143 10.0571Z" fill="black"/>
</g>
<defs>
<clipPath id="clip0_98_25">
<rect width="14" height="14" fill="white"/>
</clipPath>
</defs>
</svg>
