<svg width="46" height="26" viewBox="0 0 46 26" fill="none" xmlns="http://www.w3.org/2000/svg">
<rect width="46" height="26" rx="3" fill="white" fill-opacity="0.92"/>
<path fill-rule="evenodd" clip-rule="evenodd" d="M14.4375 20.5058C14.4375 20.9194 14.4375 21.3329 14.4375 21.7465C14.27 21.7465 14.1026 21.7465 13.9351 21.7465C13.9351 21.3798 13.9351 21.0132 13.9351 20.6465C13.9351 20.3113 13.7725 20.1253 13.4332 20.1253C13.1031 20.1253 12.8738 20.3074 12.8738 20.6507C12.8738 21.0159 12.8738 21.3812 12.8738 21.7465C12.7064 21.7465 12.5388 21.7465 12.3713 21.7465C12.3713 21.3798 12.3713 21.0132 12.3713 20.6465C12.3713 20.3113 12.2044 20.1253 11.8744 20.1253C11.5345 20.1253 11.3144 20.3074 11.3144 20.6507C11.3144 21.0159 11.3144 21.3812 11.3144 21.7465C11.1471 21.7465 10.9798 21.7465 10.8125 21.7465C10.8125 21.0876 10.8125 20.4287 10.8125 19.7698C10.9783 19.7698 11.1442 19.7698 11.31 19.7698C11.31 19.8511 11.31 19.9324 11.31 20.0136C11.4967 19.7821 11.7353 19.7201 11.9794 19.7201C12.3286 19.7201 12.5771 19.8526 12.7347 20.0718C12.9454 19.7944 13.2465 19.7158 13.5382 19.7201C14.0932 19.7244 14.4375 20.0386 14.4375 20.5058ZM17.4583 19.7685C17.4583 20.0901 17.4583 20.4116 17.4583 20.7332C17.4583 21.0548 17.4583 21.3764 17.4583 21.698C17.2889 21.698 17.1194 21.698 16.9499 21.698C16.9499 21.6199 16.9499 21.5418 16.9499 21.4637C16.7886 21.6375 16.5439 21.7465 16.2114 21.7465C15.5557 21.7465 15.0417 21.3228 15.0417 20.7332C15.0417 20.144 15.5557 19.7198 16.2114 19.7198C16.5439 19.7198 16.7886 19.829 16.9499 20.0027C16.9499 19.9246 16.9499 19.8465 16.9499 19.7685C17.1194 19.7685 17.2889 19.7685 17.4583 19.7685ZM16.4037 19.9732C15.9335 19.9732 15.6458 20.2588 15.6458 20.6065C15.6458 20.9542 15.9335 21.2398 16.4037 21.2398C16.8529 21.2398 17.1563 20.9665 17.1563 20.6065C17.1563 20.2465 16.8529 19.9732 16.4037 19.9732ZM34.6771 20.6065C34.6771 20.2588 34.9648 19.9732 35.4349 19.9732C35.8848 19.9732 36.1875 20.2465 36.1875 20.6065C36.1875 20.9665 35.8848 21.2398 35.4349 21.2398C34.9648 21.2398 34.6771 20.9542 34.6771 20.6065ZM36.4896 18.9598C36.4896 19.5468 36.4896 20.1339 36.4896 20.7209C36.4896 21.0465 36.4896 21.3719 36.4896 21.6974C36.32 21.6974 36.1503 21.6974 35.9807 21.6974C35.9807 21.6184 35.9807 21.5393 35.9807 21.4603C35.8195 21.6361 35.5748 21.7465 35.2423 21.7465C34.5868 21.7465 34.0729 21.3177 34.0729 20.7209C34.0729 20.1246 34.5868 19.6951 35.2423 19.6951C35.5748 19.6951 35.8195 19.8055 35.9807 19.9813C35.9807 19.6408 35.9807 19.3003 35.9807 18.9598C36.1503 18.9598 36.32 18.9598 36.4896 18.9598ZM23.8168 19.9732C24.143 19.9732 24.3527 20.1567 24.4063 20.4798C24.0035 20.4798 23.6007 20.4798 23.1979 20.4798C23.252 20.1782 23.4561 19.9732 23.8168 19.9732ZM22.5938 20.7332C22.5938 20.1316 23.103 19.7198 23.831 19.7198C24.5269 19.7198 25.0051 20.1316 25.0104 20.7332C25.0104 20.7895 25.0051 20.8423 24.9998 20.8945C24.385 20.8945 23.7701 20.8945 23.1553 20.8945C23.2332 21.2419 23.5501 21.3672 23.8981 21.3672C24.1473 21.3672 24.4127 21.2942 24.6209 21.1652C24.7091 21.2689 24.7973 21.3726 24.8855 21.4762C24.5839 21.674 24.2414 21.7465 23.8673 21.7465C23.1238 21.7465 22.5938 21.3468 22.5938 20.7332ZM29.8438 20.6065C29.8438 20.2588 30.1315 19.9732 30.6016 19.9732C31.0508 19.9732 31.3542 20.2465 31.3542 20.6065C31.3542 20.9665 31.0508 21.2398 30.6016 21.2398C30.1315 21.2398 29.8438 20.9542 29.8438 20.6065ZM31.6563 19.7685C31.6563 20.0901 31.6563 20.4116 31.6563 20.7332C31.6563 21.0548 31.6563 21.3764 31.6563 21.698C31.4868 21.698 31.3173 21.698 31.1478 21.698C31.1478 21.6199 31.1478 21.5418 31.1478 21.4637C30.986 21.6375 30.7419 21.7465 30.4093 21.7465C29.7536 21.7465 29.2396 21.3228 29.2396 20.7332C29.2396 20.144 29.7536 19.7198 30.4093 19.7198C30.7419 19.7198 30.986 19.829 31.1478 20.0027C31.1478 19.9246 31.1478 19.8465 31.1478 19.7685C31.3173 19.7685 31.4868 19.7685 31.6563 19.7685ZM27.125 20.7332C27.125 21.3186 27.625 21.7465 28.3881 21.7465C28.7447 21.7465 28.9822 21.6818 29.2396 21.5164C29.1572 21.4034 29.0748 21.2903 28.9924 21.1772C28.799 21.2904 28.5961 21.351 28.3727 21.351C27.9617 21.3469 27.6595 21.1047 27.6595 20.7332C27.6595 20.3617 27.9617 20.1196 28.3727 20.1154C28.5961 20.1154 28.799 20.176 28.9924 20.2892C29.0748 20.1762 29.1572 20.0631 29.2396 19.95C28.9822 19.7846 28.7447 19.7198 28.3881 19.7198C27.625 19.7198 27.125 20.1477 27.125 20.7332ZM33.0758 20.0097C33.2104 19.8359 33.405 19.7198 33.7039 19.7198C33.8088 19.7198 33.9583 19.7365 34.0729 19.7739C34.0197 19.909 33.9664 20.044 33.9132 20.1791C33.8037 20.1417 33.6942 20.1294 33.5893 20.1294C33.2504 20.1294 33.081 20.3112 33.081 20.6383C33.081 21.0077 33.081 21.3771 33.081 21.7465C32.9081 21.7465 32.7353 21.7465 32.5625 21.7465C32.5625 21.0875 32.5625 20.4286 32.5625 19.7696C32.7336 19.7696 32.9047 19.7696 33.0758 19.7696C33.0758 19.8496 33.0758 19.9297 33.0758 20.0097ZM19.8151 19.9218C19.5663 19.7888 19.2235 19.7198 18.8453 19.7198C18.2428 19.7198 17.855 19.9542 17.855 20.3377C17.855 20.6524 18.1438 20.8464 18.6757 20.907C18.7571 20.9164 18.8385 20.9258 18.9199 20.9352C19.2036 20.9675 19.3374 21.028 19.3374 21.137C19.3374 21.2863 19.1482 21.3713 18.7951 21.3713C18.4369 21.3713 18.1785 21.2785 18.0042 21.1695C17.923 21.2784 17.8417 21.3872 17.7604 21.4961C18.044 21.6657 18.4023 21.7465 18.7901 21.7465C19.4769 21.7465 19.875 21.4841 19.875 21.1168C19.875 20.7776 19.5618 20.6001 19.0441 20.5396C18.9629 20.53 18.8816 20.5206 18.8003 20.511C18.5765 20.487 18.3972 20.4509 18.3972 20.3215C18.3972 20.1801 18.5663 20.0955 18.8499 20.0955C19.1534 20.0955 19.4473 20.1885 19.5914 20.261C19.666 20.148 19.7405 20.0349 19.8151 19.9218ZM25.8261 20.0097C25.9602 19.8359 26.1547 19.7198 26.4537 19.7198C26.5587 19.7198 26.7082 19.7365 26.8229 19.7739C26.7697 19.909 26.7164 20.044 26.6632 20.1791C26.5536 20.1417 26.4441 20.1294 26.3391 20.1294C26.0002 20.1294 25.8307 20.3112 25.8307 20.6383C25.8307 21.0077 25.8307 21.3771 25.8307 21.7465C25.658 21.7465 25.4852 21.7465 25.3125 21.7465C25.3125 21.0875 25.3125 20.4286 25.3125 19.7696C25.4837 19.7696 25.6549 19.7696 25.8261 19.7696C25.8261 19.8496 25.8261 19.9297 25.8261 20.0097ZM21.893 19.7918C21.6316 19.7918 21.3703 19.7918 21.109 19.7918C21.109 19.599 21.109 19.406 21.109 19.2132C20.9474 19.2132 20.7859 19.2132 20.6243 19.2132C20.6243 19.406 20.6243 19.599 20.6243 19.7918C20.4753 19.7918 20.3261 19.7918 20.1771 19.7918C20.1771 19.9182 20.1771 20.0444 20.1771 20.1707C20.3261 20.1707 20.4753 20.1707 20.6243 20.1707C20.6243 20.4607 20.6243 20.7507 20.6243 21.0407C20.6243 21.4832 20.8228 21.7465 21.3898 21.7465C21.5979 21.7465 21.8375 21.6908 21.9896 21.5991C21.9435 21.4806 21.8973 21.3622 21.8512 21.2438C21.7082 21.3155 21.5513 21.3515 21.4267 21.3515C21.187 21.3515 21.109 21.2237 21.109 21.0324C21.109 20.7452 21.109 20.4579 21.109 20.1707C21.3703 20.1707 21.6316 20.1707 21.893 20.1707C21.893 20.0444 21.893 19.9182 21.893 19.7918Z" fill="#231F20"/>
<path d="M27.1251 16.4265C24.6077 16.4265 22.0904 16.4265 19.573 16.4265C19.573 12.5421 19.573 8.65764 19.573 4.77319C22.0904 4.77319 24.6077 4.77319 27.1251 4.77319C27.1251 8.65764 27.1251 12.5421 27.1251 16.4265Z" fill="#FF5F00"/>
<path d="M20.1484 10.5998C20.1484 8.25651 21.459 6.1692 23.4999 4.82401C22.0074 3.84035 20.1238 3.2533 18.0767 3.2533C13.2305 3.2533 9.302 6.54233 9.302 10.5998C9.302 14.6574 13.2305 17.9465 18.0767 17.9465C20.1238 17.9465 22.0074 17.3595 23.4999 16.3758C21.459 15.0306 20.1484 12.9432 20.1484 10.5998Z" fill="#EB001B"/>
<path d="M37.6979 10.5998C37.6979 14.6574 33.7696 17.9465 28.9235 17.9465C26.8765 17.9465 24.993 17.3595 23.5 16.3758C25.5414 15.0306 26.852 12.9432 26.852 10.5998C26.852 8.25651 25.5414 6.1692 23.5 4.82401C24.993 3.84035 26.8765 3.2533 28.9235 3.2533C33.7696 3.2533 37.6979 6.54233 37.6979 10.5998Z" fill="#F79E1B"/>
</svg>
