<svg width="46" height="26" viewBox="0 0 46 26" fill="none" xmlns="http://www.w3.org/2000/svg">
<rect width="46" height="26" rx="3" fill="white" fill-opacity="0.92"/>
<path d="M37.159 8.27814V12.8519H35.525V9.64351H33.9518V12.8519H32.3179V8.27783L37.159 8.27814Z" fill="black"/>
<path fill-rule="evenodd" clip-rule="evenodd" d="M28.7202 13.2037C30.1894 13.2037 31.2804 12.2866 31.2804 10.8962C31.2804 9.55052 30.4755 8.67677 29.1302 8.67677C28.5093 8.67677 27.997 8.89927 27.6111 9.2832C27.7033 8.48967 28.3623 7.91037 29.088 7.91037C29.2555 7.91037 30.5164 7.90766 30.5164 7.90766L31.2293 6.51855C31.2293 6.51855 29.6464 6.55524 28.9105 6.55524C27.2292 6.58506 26.0935 8.141 26.0935 10.0308C26.0935 12.2324 27.2012 13.2037 28.7202 13.2037ZM28.7291 9.90716C29.2746 9.90716 29.6529 10.2721 29.6529 10.8961C29.6529 11.4577 29.3167 11.9204 28.7291 11.9217C28.167 11.9217 27.7888 11.4929 27.7888 10.9056C27.7888 10.2815 28.167 9.90716 28.7291 9.90716Z" fill="black"/>
<path d="M25.0417 11.6496C25.0417 11.6496 24.6436 11.8731 24.049 11.9154C23.3653 11.9351 22.7562 11.5146 22.7562 10.7676C22.7562 10.039 23.2938 9.62138 24.0317 9.62138C24.4842 9.62138 25.0828 9.92679 25.0828 9.92679C25.0828 9.92679 25.5208 9.14407 25.7478 8.75264C25.3323 8.44597 24.7789 8.27783 24.1352 8.27783C22.5107 8.27783 21.2524 9.30923 21.2524 10.7584C21.2524 12.226 22.4351 13.2335 24.1352 13.2031C24.6104 13.1858 25.266 13.0233 25.6656 12.7734L25.0417 11.6496Z" fill="black"/>
<path d="M5 7.22217L7.42056 11.2695V13.7383L5.00283 17.7777L5 7.22217Z" fill="#5B57A2"/>
<path d="M13.6448 9.55283L15.8013 8.28179L20.2149 8.27783L13.6448 12.1482V9.55283Z" fill="#D90751"/>
<path d="M13.6321 7.08712L13.6449 12.5L11.2244 11.0913V3L13.6321 7.08712Z" fill="#FAB718"/>
<path d="M19.8692 8.27378L15.5709 8.27778L13.459 6.99592L11.2244 3L19.8692 8.27378Z" fill="#ED6F26"/>
<path d="M13.6449 17.9121V15.2881L11.2244 13.9073L11.2257 21.9999L13.6449 17.9121Z" fill="#63B22F"/>
<path d="M15.8577 16.7222L7.27404 11.3613L5 7.22217L20.215 16.7167L15.8577 16.7222Z" fill="#1487C9"/>
<path d="M11.2244 21.9999L13.4721 18L15.5696 16.7274L19.8692 16.7222L11.2244 21.9999Z" fill="#017F36"/>
<path d="M5 17.7778L11.5701 13.8295L9.36125 12.5L7.30724 13.7354L5 17.7778Z" fill="#984995"/>
<path d="M22.6433 16.2012C22.5948 16.2568 22.531 16.2988 22.4544 16.3272C22.3758 16.3559 22.2917 16.3706 22.2069 16.3703C22.1225 16.3713 22.0386 16.3587 21.9593 16.3329C21.888 16.3097 21.8229 16.2733 21.7679 16.2263C21.7137 16.1791 21.6711 16.1222 21.643 16.0593C21.6124 15.9904 21.5973 15.9167 21.5982 15.8426C21.5982 15.7689 21.6124 15.7007 21.6416 15.636C21.6697 15.5713 21.7104 15.5158 21.7616 15.4691C21.8127 15.4215 21.8739 15.3853 21.9428 15.3568C22.013 15.3296 22.0896 15.3149 22.1737 15.3149C22.2644 15.3149 22.3485 15.3251 22.4251 15.3454C22.5017 15.3659 22.5667 15.3999 22.6203 15.4477L22.5272 15.5896C22.4821 15.5528 22.429 15.5249 22.3714 15.5077C22.3166 15.4919 22.2593 15.4839 22.2018 15.4839C22.1508 15.4839 22.1023 15.493 22.0551 15.5101C22.0086 15.5269 21.9662 15.5516 21.93 15.5827C21.8931 15.6148 21.8639 15.6535 21.8445 15.6962C21.8228 15.7404 21.8127 15.7893 21.8127 15.8436C21.8127 15.8993 21.824 15.9493 21.8457 15.9924C21.8676 16.0367 21.8968 16.0742 21.9338 16.1058C21.9708 16.1378 22.0142 16.1614 22.0639 16.1774C22.1138 16.1945 22.1661 16.2024 22.2222 16.2024C22.2911 16.2024 22.3537 16.1898 22.4072 16.166C22.4602 16.143 22.5079 16.1109 22.5476 16.0719L22.6433 16.2012ZM22.9061 16.3464V15.3364H23.1077V16.0889L23.7635 15.3364H23.9652V16.3466H23.7635V15.5941L23.1077 16.3466L22.9061 16.3464ZM25.3011 16.2012C25.2515 16.2573 25.1864 16.3008 25.1123 16.3272C25.0337 16.3559 24.9496 16.3706 24.8647 16.3703C24.7804 16.3713 24.6966 16.3587 24.6172 16.3329C24.5459 16.3097 24.4807 16.2733 24.4257 16.2263C24.3715 16.1791 24.3289 16.1222 24.3008 16.0593C24.2703 15.9904 24.2552 15.9167 24.256 15.8426C24.256 15.7689 24.2701 15.7007 24.2994 15.636C24.3276 15.5713 24.3684 15.5158 24.4193 15.4691C24.4705 15.4215 24.5317 15.3853 24.6005 15.3568C24.6733 15.3281 24.7521 15.3137 24.8315 15.3149C24.9222 15.3149 25.0063 15.3251 25.0829 15.3454C25.1595 15.3659 25.2245 15.3999 25.2782 15.4477L25.185 15.5896C25.1401 15.5528 25.0871 15.5249 25.0294 15.5077C24.9746 15.4919 24.9173 15.4839 24.8597 15.4839C24.7584 15.4843 24.6611 15.5197 24.5878 15.5827C24.5512 15.615 24.5221 15.6536 24.5023 15.6962C24.4806 15.7404 24.4705 15.7893 24.4705 15.8436C24.4705 15.8993 24.482 15.9493 24.5037 15.9924C24.5253 16.0367 24.5546 16.0742 24.5916 16.1058C24.6286 16.1378 24.6721 16.1614 24.7219 16.1774C24.7716 16.1933 24.8239 16.2024 24.88 16.2024C24.949 16.2024 25.0103 16.1898 25.065 16.166C25.1181 16.143 25.1657 16.1109 25.2054 16.0719L25.3011 16.2012ZM25.4045 15.3364H26.4393V15.5158H26.0234V16.3464H25.8217V15.5158H25.4057V15.3364H25.4045Z" fill="black"/>
<path fill-rule="evenodd" clip-rule="evenodd" d="M27.5644 16.3375C27.6358 16.3159 27.6964 16.2829 27.7486 16.2376L27.6915 16.0968C27.6571 16.1265 27.6108 16.1514 27.555 16.1718C27.4991 16.1923 27.4361 16.2024 27.3672 16.2024C27.2639 16.2024 27.1783 16.1763 27.1105 16.123C27.0428 16.0695 27.006 15.9948 26.9976 15.8993H27.8105C27.8188 15.8642 27.8223 15.8244 27.8223 15.778C27.8223 15.7086 27.8092 15.6463 27.7831 15.5895C27.7588 15.5345 27.7233 15.4846 27.6786 15.4431C27.6333 15.4019 27.5799 15.3699 27.5217 15.349C27.4607 15.3261 27.3958 15.3145 27.3303 15.3148C27.2423 15.3148 27.1651 15.3296 27.0975 15.3569C27.0336 15.3828 26.9756 15.4211 26.9275 15.4692C26.8806 15.5171 26.8447 15.574 26.8219 15.6361C26.7967 15.7022 26.7842 15.7721 26.7849 15.8426C26.7849 15.9221 26.7992 15.9947 26.8254 16.0594C26.8508 16.1222 26.8896 16.1791 26.9394 16.2263C26.9882 16.2727 27.0475 16.308 27.1177 16.3329C27.1928 16.3587 27.2721 16.3713 27.3518 16.3703C27.424 16.3699 27.4957 16.3587 27.5644 16.3375ZM27.0892 15.56C27.1473 15.509 27.2245 15.484 27.322 15.484C27.4135 15.484 27.4872 15.5078 27.5408 15.5556C27.5943 15.6032 27.6226 15.6691 27.6275 15.753H26.9858C26.9948 15.6787 27.0316 15.61 27.0892 15.56Z" fill="black"/>
<path d="M28.1682 15.3148H28.3779L28.8759 15.8379L29.3475 15.3148H29.5514V16.3704H29.3214V15.6007L28.8729 16.0905H28.8641L28.3983 15.6006V16.3702H28.1682V15.3148Z" fill="black"/>
<path fill-rule="evenodd" clip-rule="evenodd" d="M29.815 15.2506C29.7533 15.2662 29.6944 15.2907 29.6402 15.3232L29.6941 15.4791C29.7404 15.4568 29.7868 15.4383 29.8331 15.4223C29.8795 15.4061 29.9386 15.3986 30.0094 15.3986C30.0659 15.3986 30.111 15.4074 30.1457 15.4247C30.1805 15.4407 30.2061 15.4654 30.2242 15.4951C30.2422 15.5248 30.2539 15.5617 30.2603 15.6049C30.2667 15.6481 30.2692 15.695 30.2692 15.7457C30.2277 15.7176 30.1802 15.6986 30.1303 15.69C30.082 15.6807 30.0329 15.6758 29.9837 15.6752C29.9231 15.6752 29.8666 15.684 29.8125 15.6987C29.7585 15.7135 29.7122 15.7358 29.6748 15.7654C29.6368 15.7951 29.606 15.8325 29.5848 15.8752C29.5621 15.9219 29.5507 15.973 29.5513 16.0246C29.5513 16.1321 29.5835 16.2161 29.6478 16.2753C29.7122 16.3345 29.797 16.3641 29.9025 16.3641C29.9977 16.3641 30.0737 16.3481 30.1315 16.3161C30.1895 16.2839 30.2358 16.2469 30.2692 16.2049V16.3469H30.4596V15.6729C30.4596 15.5295 30.4275 15.4185 30.3619 15.3406C30.2975 15.2629 30.1831 15.2234 30.021 15.2234C29.9488 15.2234 29.8807 15.2332 29.815 15.2506ZM30.1549 16.1408C30.1086 16.1729 30.048 16.1876 29.9734 16.1876C29.9078 16.1876 29.8563 16.1715 29.8204 16.1407C29.7843 16.1087 29.7663 16.0666 29.7663 16.0147C29.7663 15.984 29.7727 15.958 29.787 15.9346C29.8011 15.9111 29.8204 15.8926 29.8423 15.8778C29.8661 15.8623 29.8928 15.8509 29.9207 15.8443C29.9503 15.8369 29.9798 15.8332 30.0108 15.8332C30.1112 15.8332 30.1972 15.8566 30.268 15.9061V16.0456C30.2347 16.0818 30.1966 16.1139 30.1549 16.1408ZM32.2545 14.8604C32.2956 14.842 32.3342 14.8111 32.3702 14.7654L32.2596 14.6111C32.2313 14.6482 32.1991 14.674 32.1631 14.6876C32.1249 14.7021 32.0852 14.7129 32.0447 14.7197L32.0062 14.7264C31.9727 14.732 31.9368 14.7383 31.8981 14.7444C31.836 14.7556 31.7756 14.7738 31.718 14.7988C31.6266 14.8371 31.5534 14.8889 31.498 14.9542C31.4427 15.0197 31.399 15.0937 31.3693 15.1754C31.3392 15.2581 31.319 15.3437 31.3089 15.4308C31.2985 15.5198 31.2935 15.6049 31.2935 15.6863C31.2935 15.7914 31.3075 15.8864 31.3358 15.9715C31.3642 16.0568 31.404 16.1284 31.4567 16.1863C31.5094 16.2457 31.5726 16.2902 31.6472 16.3222C31.7218 16.3543 31.8054 16.3703 31.8993 16.3703C31.9856 16.3703 32.0654 16.3543 32.1374 16.3246C32.2068 16.2961 32.2698 16.2547 32.3227 16.2025C32.374 16.1518 32.4153 16.0912 32.4436 16.0234C32.4731 15.9555 32.4873 15.8827 32.4873 15.8061C32.4873 15.7235 32.4745 15.6483 32.45 15.5814C32.4275 15.5178 32.3916 15.4594 32.3445 15.41C32.2974 15.3613 32.2398 15.3233 32.1759 15.2986C32.1055 15.2717 32.0304 15.2583 31.9546 15.2592C31.9057 15.2592 31.8582 15.2654 31.8119 15.2778C31.7668 15.2901 31.7236 15.3079 31.6831 15.3309C31.644 15.3526 31.608 15.3796 31.5764 15.4109C31.5456 15.442 31.5199 15.4766 31.5018 15.516H31.4966C31.5006 15.4654 31.507 15.4137 31.5185 15.3605C31.5301 15.3074 31.5468 15.2566 31.5688 15.2086C31.5907 15.1605 31.619 15.1172 31.6536 15.0777C31.6909 15.0379 31.7365 15.0063 31.7875 14.9851C31.8435 14.9592 31.9027 14.9406 31.9637 14.9296L32.0041 14.9226C32.0443 14.9154 32.0827 14.9086 32.1193 14.9012C32.1683 14.8913 32.2132 14.8788 32.2545 14.8604ZM31.5392 15.916C31.5192 15.8536 31.5097 15.7886 31.5108 15.7235C31.5195 15.686 31.5352 15.6505 31.5572 15.6185C31.579 15.5852 31.6073 15.5556 31.6408 15.5295C31.7164 15.4721 31.8098 15.4412 31.9057 15.442C32.0254 15.442 32.1155 15.4777 32.1785 15.5482C32.2417 15.6198 32.2725 15.7086 32.2725 15.816C32.2725 15.8691 32.2621 15.9173 32.2443 15.9618C32.2269 16.0055 32.2006 16.0454 32.167 16.0791C32.1334 16.1129 32.0932 16.1397 32.0487 16.158C32.0024 16.1778 31.9521 16.1877 31.8955 16.1877C31.839 16.1877 31.7875 16.1766 31.7399 16.1543C31.6926 16.1325 31.6509 16.1009 31.6176 16.0618C31.5827 16.0181 31.5561 15.9687 31.5392 15.916ZM34.0466 15.2469H33.8433V16.3457H34.0466V15.2469ZM32.7806 15.2469H32.9839V15.5766H33.1718C33.2605 15.5766 33.3325 15.5876 33.3905 15.6086C33.4484 15.6297 33.4947 15.658 33.5294 15.6926C33.5641 15.7272 33.5886 15.768 33.6028 15.8135C33.6169 15.8592 33.6247 15.9061 33.6247 15.9555C33.6247 16.0049 33.6169 16.0519 33.6002 16.0988C33.5847 16.1457 33.5577 16.1863 33.5216 16.2234C33.4857 16.2606 33.4367 16.2902 33.375 16.3125C33.3132 16.3345 33.2386 16.3469 33.1486 16.3469H32.7794V15.2469H32.7806ZM32.9839 15.7604V16.1629H33.1319C33.2336 16.1629 33.3056 16.1457 33.3467 16.111C33.388 16.0765 33.4085 16.0271 33.4085 15.9618C33.4085 15.895 33.3866 15.8445 33.3455 15.8098C33.303 15.7752 33.2322 15.7579 33.1345 15.7579H32.9839V15.7604Z" fill="black"/>
<path d="M35.3857 16.2012C35.3397 16.2568 35.279 16.2988 35.2063 16.3272C35.1316 16.3559 35.0517 16.3706 34.971 16.3703C34.8909 16.3713 34.8112 16.3587 34.7357 16.3329C34.668 16.3097 34.6061 16.2733 34.5539 16.2263C34.5024 16.1791 34.4619 16.1222 34.435 16.0593C34.4062 15.9904 34.3918 15.9167 34.3926 15.8426C34.3926 15.7689 34.4059 15.7007 34.4338 15.636C34.4606 15.5713 34.4993 15.5158 34.5479 15.4691C34.5964 15.4215 34.6545 15.3853 34.7201 15.3568C34.7892 15.3281 34.864 15.3137 34.9395 15.3149C35.0255 15.3149 35.1056 15.3251 35.1784 15.3454C35.2512 15.3659 35.313 15.3999 35.3639 15.4477L35.2754 15.5896C35.2326 15.5528 35.1822 15.5249 35.1274 15.5077C35.0753 15.4919 35.0209 15.4839 34.9662 15.4839C34.9178 15.4839 34.8716 15.493 34.8267 15.5101C34.7826 15.5269 34.7422 15.5516 34.708 15.5827C34.6731 15.615 34.6454 15.6536 34.6266 15.6962C34.6061 15.7404 34.5964 15.7893 34.5964 15.8436C34.5964 15.8993 34.6072 15.9493 34.6278 15.9924C34.6484 16.0367 34.6764 16.0742 34.7115 16.1058C34.7467 16.1378 34.7879 16.1614 34.8351 16.1774C34.8826 16.1933 34.9323 16.2024 34.9857 16.2024C35.051 16.2024 35.1093 16.1898 35.1614 16.166C35.2118 16.143 35.2571 16.1109 35.2949 16.0719L35.3857 16.2012ZM35.4839 15.3364H36.4674V15.5158H36.072V16.3464H35.8805V15.5158H35.4852V15.3364H35.4839Z" fill="black"/>
<path fill-rule="evenodd" clip-rule="evenodd" d="M37.0228 15.3419H36.813V17.0741H37.0228V16.4855C37.0652 16.5138 37.1157 16.5341 37.1741 16.5474C37.2324 16.5609 37.2935 16.5676 37.356 16.5676C37.4488 16.5676 37.5325 16.5501 37.6081 16.5179C37.6808 16.486 37.7466 16.4398 37.8019 16.3819C37.8563 16.3238 37.8975 16.2564 37.9266 16.1769C37.9558 16.0976 37.9705 16.0126 37.9705 15.9225C37.9705 15.8334 37.9572 15.7514 37.9321 15.6772C37.9083 15.6068 37.8713 15.5419 37.8231 15.486C37.7759 15.4315 37.7174 15.3887 37.6519 15.3607C37.5802 15.3292 37.5028 15.3135 37.4249 15.3149C37.3427 15.3149 37.2657 15.3311 37.1927 15.3635C37.1196 15.3958 37.0626 15.4347 37.0228 15.4833V15.3419ZM37.1689 15.5642C37.2286 15.5318 37.2936 15.5156 37.364 15.5156C37.425 15.5156 37.4794 15.525 37.5287 15.5453C37.5765 15.5655 37.6162 15.5938 37.6495 15.6316C37.6827 15.6692 37.7079 15.7125 37.7238 15.7635C37.741 15.8146 37.7491 15.87 37.7491 15.9306C37.7491 15.9953 37.7383 16.0531 37.7198 16.107C37.7025 16.1581 37.6749 16.2049 37.6387 16.2444C37.6025 16.2835 37.5587 16.3142 37.51 16.3346C37.4558 16.3579 37.3976 16.3694 37.3388 16.3683C37.2818 16.3683 37.2286 16.3617 37.1781 16.3482C37.1229 16.3327 37.0704 16.3082 37.023 16.2754V15.6813C37.0601 15.6356 37.1092 15.5966 37.1689 15.5642ZM39.5793 15.3417H39.3695V16.5407H39.5793V15.3417ZM38.2718 15.3417H38.4816V15.7015H38.6754C38.767 15.7015 38.8412 15.7136 38.9011 15.7364C38.9608 15.7595 39.0086 15.7903 39.0444 15.8281C39.0803 15.8658 39.1055 15.9103 39.12 15.96C39.1347 16.0099 39.1425 16.061 39.1425 16.1149C39.1425 16.1688 39.1347 16.2201 39.1174 16.2713C39.1015 16.3224 39.0736 16.3669 39.0364 16.4073C38.9994 16.4478 38.9489 16.4802 38.8851 16.5044C38.8214 16.5285 38.7444 16.542 38.6515 16.542H38.2705V15.3417H38.2718ZM38.483 15.9021V16.3413H38.6358C38.7404 16.3413 38.8149 16.3224 38.8573 16.2846C38.8998 16.2469 38.921 16.1931 38.921 16.1217C38.921 16.0489 38.8986 15.9938 38.8561 15.956C38.8122 15.9182 38.7392 15.8993 38.6384 15.8993H38.483V15.9021Z" fill="black"/>
<path d="M40.5223 15.8649L40.9626 16.4561H40.7099L40.3698 15.9944L40.0246 16.4561H39.7849L40.2225 15.8751L39.8109 15.3148H40.0637L40.3777 15.7457L40.6968 15.3148H40.9366L40.5223 15.8649ZM22.4359 17.8665H21.8041V18.8179H21.5981V17.6768H22.6417V18.8179H22.4359V17.8665ZM23.8103 17.8793H23.4039L23.3907 18.0716C23.3765 18.2345 23.3569 18.3653 23.3295 18.4651C23.3021 18.5653 23.2682 18.6422 23.2293 18.696C23.1903 18.7499 23.1445 18.7871 23.0924 18.8051C23.0386 18.8245 22.9817 18.834 22.9244 18.8333L22.9088 18.6358C22.9309 18.637 22.9569 18.6319 22.9856 18.6191C23.0143 18.6063 23.043 18.5781 23.0703 18.5358C23.0977 18.4921 23.1224 18.4306 23.1445 18.3511C23.1667 18.2704 23.1811 18.1653 23.1888 18.0331L23.2097 17.6779H24.0162V18.8191H23.8103V17.8793Z" fill="black"/>
<path fill-rule="evenodd" clip-rule="evenodd" d="M24.6658 17.4511C24.5907 17.467 24.5231 17.4898 24.4659 17.5183L24.5277 17.6623C24.5806 17.6418 24.6335 17.6246 24.6862 17.6097C24.7391 17.5949 24.8069 17.588 24.8875 17.588C24.9523 17.588 25.0036 17.596 25.0432 17.6119C25.0831 17.6269 25.1124 17.6497 25.133 17.6771C25.1535 17.7047 25.1667 17.739 25.174 17.7787C25.1814 17.8188 25.1843 17.8622 25.1843 17.9091C25.1369 17.883 25.0827 17.8655 25.0256 17.8577C24.9705 17.8491 24.9144 17.8445 24.8582 17.844C24.7893 17.844 24.7244 17.8519 24.6628 17.8656C24.601 17.8794 24.5481 17.9 24.5054 17.9275C24.462 17.9549 24.4269 17.9896 24.4027 18.0291C24.3768 18.0723 24.3638 18.1196 24.3645 18.1673C24.3645 18.2666 24.4013 18.3444 24.4748 18.3992C24.5481 18.454 24.6451 18.4815 24.7657 18.4815C24.8744 18.4815 24.961 18.4666 25.0272 18.4369C25.0932 18.4072 25.1461 18.3728 25.1843 18.334V18.4654H25.4019V17.8416C25.4019 17.7091 25.3651 17.6063 25.2901 17.5344C25.2167 17.4623 25.0859 17.4259 24.9008 17.4259C24.8214 17.426 24.7423 17.4345 24.6658 17.4511ZM25.0552 18.2746C25.0024 18.3043 24.9333 18.3181 24.848 18.3181C24.7716 18.3181 24.7143 18.3032 24.6732 18.2746C24.6321 18.2449 24.6114 18.206 24.6114 18.1581C24.6114 18.1295 24.6188 18.1055 24.635 18.0839C24.6511 18.0621 24.6732 18.045 24.6982 18.0313C24.7232 18.0175 24.754 18.0073 24.7878 18.0004C24.8214 17.9935 24.856 17.9901 24.8907 17.9902C25.0052 17.9902 25.1037 18.0119 25.1845 18.0575V18.1865C25.1464 18.2201 25.1029 18.2497 25.0552 18.2746Z" fill="black"/>
<path d="M25.7476 17.7778H26.7849V17.9651H26.3678V18.8334H26.1659V17.9653H25.7489V17.7778H25.7476Z" fill="black"/>
<path fill-rule="evenodd" clip-rule="evenodd" d="M27.6492 18.7958C27.7283 18.7713 27.7954 18.7339 27.8534 18.6824L27.7901 18.5226C27.7519 18.5562 27.7005 18.5845 27.6385 18.6078C27.5767 18.631 27.507 18.6425 27.4305 18.6425C27.3159 18.6425 27.2211 18.6129 27.1459 18.5523C27.0708 18.4918 27.0301 18.4067 27.0209 18.2983H27.9219C27.931 18.2585 27.935 18.2133 27.935 18.1604C27.935 18.082 27.9205 18.011 27.8916 17.9466C27.8646 17.8841 27.8251 17.8275 27.7756 17.7804C27.7255 17.7336 27.6664 17.6971 27.6018 17.6734C27.5342 17.6474 27.4622 17.6342 27.3896 17.6346C27.2921 17.6346 27.2065 17.6514 27.1315 17.6824C27.0606 17.7117 26.9965 17.7552 26.9431 17.81C26.8912 17.8644 26.8512 17.9289 26.8258 17.9994C26.7981 18.0745 26.7842 18.1539 26.7849 18.2339C26.7849 18.3242 26.8008 18.4066 26.8297 18.4802C26.8589 18.5535 26.9022 18.6168 26.9562 18.6696C27.0102 18.7224 27.0761 18.7624 27.1539 18.7907C27.2371 18.82 27.325 18.8344 27.4133 18.8333C27.4911 18.8333 27.5701 18.8202 27.6492 18.7958ZM27.121 17.9117C27.1855 17.8538 27.2712 17.8255 27.3792 17.8255C27.4821 17.8255 27.5624 17.8538 27.6217 17.9066C27.6808 17.9609 27.7124 18.0354 27.7178 18.1309H27.0065C27.0165 18.0465 27.0572 17.9686 27.121 17.9117ZM28.0365 17.6605H28.2999L28.7016 18.2135L28.2722 18.8074H28.0167L28.4671 18.2133L28.0365 17.6605ZM28.7529 17.6605H28.9612V18.8074H28.7529V17.6605ZM29.7053 18.8074L29.247 18.2133L29.6751 17.6604H29.4169L29.0125 18.2133L29.4472 18.8074H29.7053ZM30.6565 18.7958C30.7356 18.7713 30.8026 18.7339 30.8606 18.6824L30.7974 18.5226C30.7592 18.5562 30.7078 18.5845 30.646 18.6078C30.584 18.631 30.5142 18.6425 30.4378 18.6425C30.3232 18.6425 30.2284 18.6129 30.1532 18.5523C30.0782 18.4918 30.0374 18.4067 30.0281 18.2983H30.9291C30.9384 18.2585 30.9423 18.2133 30.9423 18.1604C30.9423 18.082 30.9279 18.011 30.8988 17.9466C30.8718 17.8841 30.8325 17.8275 30.7829 17.7804C30.7328 17.7336 30.6737 17.6971 30.609 17.6734C30.5414 17.6474 30.4695 17.6342 30.3969 17.6346C30.2996 17.6346 30.2139 17.6514 30.1388 17.6824C30.0679 17.7118 30.0039 17.7552 29.9505 17.81C29.8985 17.8644 29.8585 17.9288 29.8332 17.9994C29.8054 18.0745 29.7915 18.1539 29.7924 18.2339C29.7924 18.3242 29.8082 18.4066 29.8372 18.4802C29.8661 18.5535 29.9096 18.6168 29.9637 18.6696C30.0176 18.7224 30.0834 18.7624 30.1612 18.7907C30.2444 18.82 30.3324 18.8344 30.4207 18.8333C30.5008 18.8327 30.5803 18.8201 30.6565 18.7958ZM30.1283 17.9117C30.1929 17.8538 30.2786 17.8255 30.3866 17.8255C30.488 17.8255 30.5696 17.8538 30.6289 17.9066C30.6883 17.9609 30.7199 18.0354 30.725 18.1309H30.0137C30.0237 18.0465 30.0644 17.9686 30.1283 17.9117ZM31.7869 17.2752C31.6643 17.2752 31.5971 17.2081 31.5866 17.0741H31.3903C31.3903 17.1256 31.3996 17.172 31.4166 17.2158C31.4338 17.2596 31.4589 17.297 31.4917 17.328C31.5247 17.3589 31.5669 17.3834 31.6156 17.4026C31.6643 17.422 31.7209 17.431 31.7854 17.431C31.8448 17.431 31.8975 17.422 31.945 17.4026C31.9923 17.3846 32.0318 17.3589 32.0661 17.328C32.0989 17.297 32.1254 17.2596 32.1437 17.2158C32.1622 17.172 32.1715 17.1256 32.1715 17.0741H31.9765C31.9674 17.2081 31.9027 17.2752 31.7869 17.2752ZM31.2242 17.6604V18.8074H31.4324L32.1095 17.9529V18.8074H32.3176V17.6604H32.1095L31.4324 18.5148V17.6604H31.2242Z" fill="black"/>
</svg>
