<svg width="20" height="20" viewBox="0 0 20 20" fill="none" xmlns="http://www.w3.org/2000/svg">
<mask id="mask0_147_20" style="mask-type:luminance" maskUnits="userSpaceOnUse" x="0" y="0" width="20" height="20">
<path d="M20 0H0V20H20V0Z" fill="white"/>
</mask>
<g mask="url(#mask0_147_20)">
<path d="M19.3108 6.25797H12.289V2.29605C12.289 1.02973 11.2589 0 9.99255 0C8.7266 0 7.69648 1.02973 7.69648 2.29605V6.25797H0.689219C0.362265 6.25797 0.0976562 6.52258 0.0976562 6.84953V10.1461C0.0976562 10.4731 0.362265 10.7377 0.689219 10.7377H1.49297L1.98711 18.5909C2.0368 19.3812 2.69578 20 3.48769 20H16.5124C17.3043 20 17.9633 19.3812 18.013 18.5909L18.5071 10.7377H19.3108C19.6378 10.7377 19.9025 10.4731 19.9025 10.1461V6.84953C19.9025 6.52258 19.6378 6.25797 19.3108 6.25797ZM9.99255 1.18313C10.6066 1.18313 11.1058 1.68242 11.1058 2.29605C11.1058 4.69597 11.1058 10.2645 11.1058 12.5577C10.4035 12.241 9.586 12.2411 8.87961 12.5641C8.87961 12.4065 8.87961 2.94969 8.87961 2.29609C8.87961 1.68242 9.37891 1.18313 9.99255 1.18313ZM10 13.5042C11.1146 13.5042 11.85 14.6663 11.3843 15.6689C11.1422 16.1911 10.6125 16.5544 10 16.5544C9.15782 16.5544 8.475 15.8688 8.475 15.0293C8.475 14.1897 9.15773 13.5042 10 13.5042ZM1.28078 9.55455V7.44109H7.69648C7.69648 8.63726 7.69648 8.34614 7.69648 9.55455C6.9927 9.55455 1.94035 9.55455 1.28078 9.55455ZM16.8323 18.5167C16.8215 18.6852 16.6812 18.8169 16.5124 18.8169H3.48769C3.31891 18.8169 3.17852 18.6852 3.16785 18.5167L2.67883 10.7377H7.69648V13.6072C6.58801 15.3916 7.87437 17.7375 10 17.7375C11.4932 17.7375 12.7082 16.5225 12.7082 15.0294C12.7082 14.4981 12.5545 14.002 12.289 13.5835V10.7377H17.3212L16.8323 18.5167ZM12.289 9.55455C12.289 7.82605 12.289 8.65719 12.289 7.44109H18.7193V9.55455C18.0611 9.55455 12.9958 9.55455 12.289 9.55455Z" fill="black"/>
</g>
</svg>
