<svg width="9" height="9" viewBox="0 0 9 9" fill="none" xmlns="http://www.w3.org/2000/svg">
<g clip-path="url(#clip0_210_160)">
<path d="M8.80461 4.0965C8.98176 3.92385 9.0443 3.67047 8.96788 3.43493C8.89129 3.19938 8.69179 3.03124 8.4467 2.99556L6.26752 2.67892C6.17471 2.6654 6.09452 2.60719 6.05307 2.52303L5.07882 0.548402C4.96943 0.326556 4.7474 0.18869 4.49996 0.18869C4.25271 0.18869 4.03068 0.326556 3.92129 0.548402L2.94686 2.52303C2.90541 2.60719 2.82503 2.6654 2.73222 2.67892L0.553046 2.99574C0.308132 3.03124 0.108633 3.19938 0.0320411 3.43493C-0.0443706 3.67047 0.0181644 3.92385 0.195317 4.0965L1.77203 5.63338C1.83925 5.69898 1.87007 5.79342 1.85421 5.88569L1.48206 8.05603C1.44025 8.29986 1.53847 8.54153 1.73869 8.68715C1.93873 8.83294 2.19914 8.85187 2.41846 8.73635L4.36732 7.71164C4.4504 7.66803 4.54952 7.66803 4.6326 7.71164L6.58164 8.73635C6.6768 8.78645 6.77988 8.81114 6.88242 8.81114C7.0156 8.81114 7.14824 8.76951 7.26142 8.68715C7.46164 8.54153 7.55985 8.29986 7.51804 8.05603L7.14572 5.88587C7.12986 5.79342 7.16068 5.69916 7.2279 5.63356L8.80461 4.0965ZM6.79069 5.94678L7.16284 8.11694C7.18158 8.22615 7.13923 8.3305 7.04948 8.39574C6.95955 8.4608 6.84764 8.46873 6.74942 8.41754L4.80038 7.39265C4.70649 7.34346 4.60305 7.31859 4.49996 7.31859C4.39688 7.31859 4.29362 7.34346 4.19954 7.39283L2.25086 8.41754C2.15229 8.46873 2.04037 8.4608 1.95062 8.39574C1.86088 8.3305 1.81871 8.22634 1.83727 8.11694L2.20941 5.94678C2.24528 5.73737 2.17589 5.52363 2.02379 5.37549L0.446899 3.83843C0.367424 3.76094 0.340391 3.65173 0.374812 3.5463C0.409054 3.44069 0.495017 3.36825 0.604768 3.35221L2.78376 3.03557C2.99408 3.00511 3.17591 2.87319 3.26981 2.68252L4.24424 0.707893C4.29325 0.608414 4.38895 0.549123 4.49978 0.549123C4.6108 0.549123 4.70631 0.608414 4.75551 0.707893L5.72994 2.68252C5.82383 2.87319 6.00549 3.00511 6.2158 3.03557L8.39498 3.35221C8.50473 3.36825 8.59069 3.44069 8.62493 3.5463C8.65917 3.65173 8.63232 3.76094 8.55285 3.83843L6.97613 5.37531C6.82403 5.52363 6.75465 5.73719 6.79069 5.94678Z" fill="black"/>
</g>
<defs>
<clipPath id="clip0_210_160">
<rect width="9" height="9" fill="white"/>
</clipPath>
</defs>
</svg>
