<svg width="14" height="14" viewBox="0 0 14 14" fill="none" xmlns="http://www.w3.org/2000/svg">
<g clip-path="url(#clip0_149_576)">
<path d="M9.94162 4.23344L13.2234 4.68978C13.9617 4.79245 14.2619 5.6972 13.7313 6.22081L11.3728 8.54806C11.1622 8.75598 11.0672 9.05427 11.1191 9.34573L11.6992 12.6079C11.8297 13.3419 11.062 13.9068 10.4 13.564L7.45785 12.0402C7.195 11.904 6.88199 11.9059 6.62084 12.0453L3.69752 13.6051C3.03982 13.956 2.26523 13.4005 2.38675 12.665L2.92681 9.39598C2.97507 9.10393 2.87653 8.80684 2.66327 8.60149L0.276523 6.30327C-0.26048 5.78621 0.0285433 4.87785 0.765593 4.76615L4.04153 4.26961C4.33422 4.22524 4.58633 4.03971 4.71569 3.77346L6.16387 0.793328C6.4897 0.122833 7.44287 0.117009 7.7769 0.783429L9.26144 3.7456C9.39406 4.01026 9.64844 4.19267 9.94162 4.23344Z" fill="black"/>
<path d="M3.1722 5.88377C3.1722 5.37197 3.2232 4.87323 3.29806 4.38232L0.765601 4.76612C0.0284971 4.87785 -0.260444 5.78618 0.276504 6.30327L2.66339 8.60148C2.87659 8.80681 2.97516 9.1039 2.92685 9.39598L2.38681 12.665C2.26524 13.4005 3.03997 13.9561 3.69758 13.6051L5.7395 12.5156C4.14927 10.7602 3.1722 8.43893 3.1722 5.88377Z" fill="black"/>
<path d="M13.7313 6.22086C14.2619 5.69725 13.9617 4.79248 13.2234 4.68983L9.94161 4.23344C9.64841 4.19267 9.394 4.01026 9.26147 3.7456L7.77695 0.783399C7.44278 0.116978 6.48961 0.122802 6.16389 0.793297L5.54614 2.06431C7.653 3.47049 9.04192 5.8678 9.04192 8.59085C9.04192 9.95757 8.69089 11.2416 8.07642 12.3605L10.4 13.564C11.0619 13.9068 11.8297 13.3418 11.6992 12.6079L11.119 9.34572C11.0673 9.05427 11.1621 8.75597 11.3728 8.54805L13.7313 6.22086Z" fill="black"/>
</g>
<defs>
<clipPath id="clip0_149_576">
<rect width="14" height="14" fill="white"/>
</clipPath>
</defs>
</svg>
